<svg xmlns="http://www.w3.org/2000/svg" viewBox="0 0 64 64" width="64" height="64">
  <defs><clipPath id="c"><circle cx="32" cy="32" r="31"/></clipPath></defs>
  <circle cx="32" cy="32" r="31" fill="#fefefe"/>
  <g clip-path="url(#c)">
    <path d="M0 40c6-5 11-9 16-9s7 3 12 3 8-6 14-6 12 5 22 9v26H0Z" fill="#b5bfc7"/>
    <path d="M43 22c1.7 2.5 3.1 3.9 5 4.9h-3.6v3.1h4.8c1.9 2 3.6 3.4 6.4 4.7H40.4c2.1-1.3 3.8-2.7 5.2-4.7h-4.2v-3.1h-3.1c1.8-1 3.2-2.4 3.8-4.9Z" fill="#4a6b45"/>
    <path d="M42.6 33h1.9v7h-1.9Z" fill="#5c4a33"/>
    <path d="M34 44c5-6 12-9 18-9s10 2 12 3v10H30Z" fill="#7d9163"/>
    <path d="M16 33c1.3 1.9 2.4 3 3.8 3.7h-2.7v2.3h3.6c1.4 1.4 2.7 2.6 4.8 3.5H11.4c1.6-.9 2.9-2.1 4-3.5h-3.3v-2.3h-2.4c1.3-.8 2.4-1.8 2.9-3.7Z" fill="#4a6b45"/>
    <path d="M0 46c4-6 9-9 15-9s11 3 15 9v8H0Z" fill="#6f8459"/>
    <path d="M0 45c8 1 16 2 26 2s24-1 38-3v20H0Z" fill="#3a748d"/>
    <path d="M20 50c8 1.5 14 2 22 2s16-.6 22-1.4" stroke="#e9f1f4" stroke-width="1.8" fill="none" opacity=".8"/>
    <path d="M10 55c10 1.4 20 2 30 2s18-.5 24-1.1" stroke="#e9f1f4" stroke-width="1.6" fill="none" opacity=".6"/>
  </g>
  <circle cx="32" cy="32" r="31" fill="none" stroke="#3a748d" stroke-width="2"/>
</svg>
